# File created by Blade
# Date/Time:  Wed Sep 24 20:21:23 2014
# Frame Rate: 120.000 fps
#------------------------------------------------------
:FULLY-SPECIFIED
:DEGREES
1177
root -2.882851 32.727164 -6.035399 11.686293 -2.547295 -1.378358
Spine -1.673212 3.568277 -2.071699
Head -18.562388 -1.476354 8.285550
LeftShoulder -5.561942 14.608551 12.110630
LeftArm 32.917781 38.494473 -69.688446
LeftForeArm -1.548668 -0.000000 24.258469
LeftHand -25.652931 -0.000000 0.854057
LeftHandThumb1 -26.253704 0.000000 33.147579
RightShoulder -17.826843 12.734895 -24.357690
RightArm -4.693603 -41.245655 93.693081
RightForeArm -21.935797 0.000000 70.527177
RightHand -5.433599 -0.000000 -4.577009
RightHandThumb1 -24.326973 -0.000000 -32.862282
LeftUpLeg -10.646349 16.313966 -0.863397
LeftLeg 1.322123 -0.000000 -0.000000
LeftFoot -12.541052 9.065289 -15.806652
LeftToeBase 7.900121 -0.000000 -0.000000
RightUpLeg -13.463297 -2.919095 -0.640363
RightLeg 6.214366 -0.000000 -0.000000
RightFoot -9.304241 -4.147316 -6.042220
RightToeBase -1.161665 -0.000000 0.000000
1178
root -2.868878 32.724880 -6.028102 11.508395 -2.529937 -1.356615
Spine -1.453416 3.524213 -2.042359
Head -18.704445 -1.580606 8.312013
LeftShoulder -5.526755 14.622051 12.107131
LeftArm 32.754683 38.175506 -70.012246
LeftForeArm -1.327632 0.000000 23.927226
LeftHand -25.749772 -0.000000 0.710149
LeftHandThumb1 -26.253704 0.000000 33.147579
RightShoulder -17.777294 12.858991 -24.403442
RightArm -4.200434 -40.993838 93.149453
RightForeArm -21.538094 -0.000000 72.473576
RightHand -5.328951 -0.000000 -4.695101
RightHandThumb1 -24.326973 -0.000000 -32.862282
LeftUpLeg -10.462072 16.180828 -0.835275
LeftLeg 1.359081 -0.000000 -0.000000
LeftFoot -12.623770 9.177315 -15.809362
LeftToeBase 7.934150 -0.000000 -0.000000
RightUpLeg -13.315999 -2.934508 -0.684492
RightLeg 6.308423 -0.000000 -0.000000
RightFoot -9.365011 -4.215894 -6.116662
RightToeBase -1.128699 -0.000000 0.000000
1179
root -2.867173 32.723068 -6.040604 11.487008 -2.583382 -1.352621
Spine -1.401504 3.559296 -2.085103
Head -18.835507 -1.689282 8.413104
LeftShoulder -5.497093 14.628080 12.177569
LeftArm 32.687818 38.126641 -70.047415
LeftForeArm -1.357970 -0.000000 23.742647
LeftHand -25.748640 -0.000000 0.638671
LeftHandThumb1 -26.253704 0.000000 33.147579
RightShoulder -17.747742 12.989652 -24.496976
RightArm -3.805114 -40.610077 92.884106
RightForeArm -21.628441 -0.000000 74.363880
RightHand -5.274742 -0.000000 -4.669986
RightHandThumb1 -24.326973 -0.000000 -32.862282
LeftUpLeg -10.508652 16.138259 -0.830501
LeftLeg 1.480294 -0.000000 -0.000000
LeftFoot -12.719742 9.216894 -15.891439
LeftToeBase 7.969337 -0.000000 -0.000000
RightUpLeg -13.407109 -2.819338 -0.708259
RightLeg 6.489952 -0.000000 -0.000000
RightFoot -9.425454 -4.309609 -6.149400
RightToeBase -1.140898 -0.000000 0.000000
1180
root -2.858901 32.720768 -6.042843 11.409145 -2.631689 -1.335059
Spine -1.304936 3.575373 -2.118083
Head -18.916622 -1.794095 8.505703
LeftShoulder -5.500782 14.690207 12.192650
LeftArm 32.746182 38.175951 -69.944383
LeftForeArm -1.302419 0.000000 23.527661
LeftHand -25.809726 -0.000000 0.497015
LeftHandThumb1 -26.253704 0.000000 33.147579
RightShoulder -17.730864 13.118342 -24.587271
RightArm -3.290526 -40.291802 92.537782
RightForeArm -21.618872 -0.000000 76.162915
RightHand -5.335255 0.000000 -4.968817
RightHandThumb1 -24.326973 -0.000000 -32.862282
LeftUpLeg -10.452976 16.095155 -0.836826
LeftLeg 1.540122 -0.000000 -0.000000
LeftFoot -12.785739 9.300932 -15.883406
LeftToeBase 7.978224 -0.000000 -0.000000
RightUpLeg -13.397801 -2.782761 -0.748498
RightLeg 6.613179 -0.000000 -0.000000
RightFoot -9.487138 -4.326133 -6.167045
RightToeBase -1.144997 -0.000000 0.000000
1181
root -2.849378 32.719114 -6.045121 11.338362 -2.682307 -1.316190
Spine -1.227363 3.567834 -2.141873
Head -18.951997 -1.916068 8.571127
LeftShoulder -5.510146 14.720016 12.193164
LeftArm 32.711251 38.147142 -69.913209
LeftForeArm -1.547947 -0.000000 23.354089
LeftHand -25.806326 -0.000000 0.658005
LeftHandThumb1 -26.253704 0.000000 33.147579
RightShoulder -17.680580 13.273683 -24.683856
RightArm -2.753809 -39.969038 92.136017
RightForeArm -21.484574 -0.000000 78.053674
RightHand -5.210689 -0.000000 -4.368720
RightHandThumb1 -24.326973 -0.000000 -32.862282
LeftUpLeg -10.381723 16.005469 -0.838800
LeftLeg 1.553353 -0.000000 -0.000000
LeftFoot -12.847130 9.438044 -15.893259
LeftToeBase 7.969473 -0.000000 -0.000000
RightUpLeg -13.413001 -2.768902 -0.784719
RightLeg 6.770488 -0.000000 -0.000000
RightFoot -9.567063 -4.334110 -6.227551
RightToeBase -1.081813 -0.000000 0.000000
1182
root -2.840060 32.717476 -6.047751 11.274710 -2.744625 -1.297206
Spine -1.159054 3.597781 -2.177164
Head -18.975828 -2.043961 8.667314
LeftShoulder -5.514494 14.794556 12.184545
LeftArm 32.816557 38.278355 -69.662003
LeftForeArm -1.813293 -0.000000 23.227956
LeftHand -25.753917 -0.000000 1.044037
LeftHandThumb1 -26.253704 0.000000 33.147579
RightShoulder -17.651308 13.465228 -24.816512
RightArm -2.306771 -39.638214 91.876634
RightForeArm -21.398926 -0.000000 79.877063
RightHand -5.326077 -0.000000 -4.557301
RightHandThumb1 -24.326973 -0.000000 -32.862282
LeftUpLeg -10.331692 15.992815 -0.858247
LeftLeg 1.593177 -0.000000 -0.000000
LeftFoot -12.893289 9.514458 -15.889064
LeftToeBase 7.951554 -0.000000 -0.000000
RightUpLeg -13.431590 -2.742073 -0.824291
RightLeg 6.915631 -0.000000 -0.000000
RightFoot -9.620554 -4.345679 -6.285817
RightToeBase -1.109558 -0.000000 0.000000
1183
root -2.829641 32.715633 -6.051204 11.228417 -2.809597 -1.263135
Spine -1.124557 3.610147 -2.228904
Head -18.958469 -2.192860 8.759618
LeftShoulder -5.516510 14.863063 12.172730
LeftArm 32.981600 38.513819 -69.288815
LeftForeArm -2.141788 -0.000000 23.066897
LeftHand -25.748783 -0.000000 1.034566
LeftHandThumb1 -26.253704 0.000000 33.147579
RightShoulder -17.597090 13.651365 -24.947983
RightArm -1.814384 -39.209572 91.630394
RightForeArm -21.258522 0.000000 81.630081
RightHand -5.192200 -0.000000 -4.393586
RightHandThumb1 -24.326973 -0.000000 -32.862282
LeftUpLeg -10.291446 15.982974 -0.903048
LeftLeg 1.602281 -0.000000 -0.000000
LeftFoot -12.924220 9.583580 -15.872594
LeftToeBase 7.955935 -0.000000 -0.000000
RightUpLeg -13.464990 -2.714140 -0.882865
RightLeg 7.047728 -0.000000 -0.000000
RightFoot -9.689145 -4.348396 -6.319875
RightToeBase -1.094268 -0.000000 0.000000
1184
root -2.812016 32.714630 -6.043837 11.109517 -2.786375 -1.253401
Spine -1.012631 3.574960 -2.175085
Head -18.931543 -2.438895 8.745287
LeftShoulder -5.488539 14.929529 12.097455
LeftArm 33.079886 38.583483 -69.093023
LeftForeArm -2.384920 -0.000000 22.887089
LeftHand -25.816428 -0.000000 0.835707
LeftHandThumb1 -26.253704 0.000000 33.147579
RightShoulder -17.557249 13.855660 -25.096873
RightArm -1.298108 -38.835610 91.284760
RightForeArm -21.099785 -0.000000 83.404609
RightHand -5.051857 -0.000000 -4.252139
RightHandThumb1 -24.326973 -0.000000 -32.862282
LeftUpLeg -10.115386 15.805282 -0.881573
LeftLeg 1.524873 -0.000000 -0.000000
LeftFoot -12.952746 9.762021 -15.839338
LeftToeBase 7.974253 -0.000000 -0.000000
RightUpLeg -13.378782 -2.872870 -0.900961
RightLeg 7.139564 -0.000000 -0.000000
RightFoot -9.737671 -4.225034 -6.330947
RightToeBase -1.151709 -0.000000 0.000000
1185
root -2.806497 32.712390 -6.046189 11.066851 -2.917552 -1.271159
Spine -0.989571 3.671022 -2.201382
Head -18.867296 -2.616574 8.854957
LeftShoulder -5.460692 14.963002 12.130488
LeftArm 33.018030 38.552855 -69.120215
LeftForeArm -2.411900 -0.000000 22.704413
LeftHand -25.840738 -0.000000 0.594454
LeftHandThumb1 -26.253704 0.000000 33.147579
RightShoulder -17.510349 14.021539 -25.200305
RightArm -0.666458 -38.504065 90.951652
RightForeArm -20.687392 -0.000000 85.105192
RightHand -4.908987 -0.000000 -4.264402
RightHandThumb1 -24.326973 -0.000000 -32.862282
LeftUpLeg -10.068716 15.960424 -0.884737
LeftLeg 1.535120 -0.000000 -0.000000
LeftFoot -12.973423 9.702192 -15.810839
LeftToeBase 7.976109 -0.000000 -0.000000
RightUpLeg -13.421385 -2.747600 -0.910156
RightLeg 7.278885 -0.000000 -0.000000
RightFoot -9.783070 -4.282745 -6.407814
RightToeBase -1.123935 -0.000000 0.000000
1186
root -2.796084 32.712435 -6.047049 11.016387 -2.986940 -1.231586
Spine -0.965851 3.650881 -2.283604
Head -18.762842 -2.766790 9.009975
LeftShoulder -5.437382 14.944975 12.175197
LeftArm 32.885362 38.523512 -69.188642
LeftForeArm -2.512900 -0.000000 22.487018
LeftHand -25.866717 -0.000000 0.771113
LeftHandThumb1 -26.253704 0.000000 33.147579
RightShoulder -17.379509 14.278446 -25.234682
RightArm -0.085892 -38.145341 90.530255
RightForeArm -20.079392 -0.000000 86.874848
RightHand -4.806032 -0.000000 -4.095694
RightHandThumb1 -24.326973 -0.000000 -32.862282
LeftUpLeg -9.990310 15.944585 -0.934584
LeftLeg 1.488506 -0.000000 -0.000000
LeftFoot -12.973276 9.813719 -15.807525
LeftToeBase 8.005607 -0.000000 -0.000000
RightUpLeg -13.438242 -2.750415 -0.968724
RightLeg 7.393249 -0.000000 -0.000000
RightFoot -9.833624 -4.229165 -6.402252
RightToeBase -1.117524 -0.000000 0.000000
